# xmcd
#
# Track frame offsets:
#	150
#	5812
#	16862
#	28684
#	40582
#	47951
#	61894
#	72295
#	86247
#	91555
#	103758
#	113727
#	123549
#	137135
#	156162
#	169665
#	180930
#	193240
#	206732
#	222222
#	229971
#	237554
#	250353
#	269959
#	279620
#	288484
#	306346
#	309915
#	319665
#	330012
#	340530
#	350940
#
# Disc length: 4715 seconds
#
# Revision: 0
# Processed by: cddbd v1.5.2PL0 Copyright (c) Steve Scherf et al.
# Submitted via: EasyCDDAExtractor 15.2.5.1
#
DISCID=df126920
DTITLE=Various Artist - Bonanza! Plus Ponderosa Party Time
DYEAR=2018
DGENRE=Country
TTITLE0=Cast  - Bonanza!
TTITLE1=The Cartwrights - Sourwood Mountain
TTITLE2=Dan Blocker - Sky Ball Paint
TTITLE3=Pernell Roberts - Early One Morning
TTITLE4=Lorne Greene - Ponderosa
TTITLE5=Michael Landon - Careless Love
TTITLE6=The Cartwrights - Skip To My Lou
TTITLE7=Pernell Roberts - In The Pines
TTITLE8=Cast  - Happy Birthday
TTITLE9=Lorne Greene - My Sons, My Sons
TTITLE10=Dan Blocker - The Hangin'  Blues
TTITLE11=Michael Landon - Shenandoah
TTITLE12=The Cartwrights - Miss Cindy
TTITLE13=Lorne Greene - The Place Where I Worship
TTITLE14=David Rose and His Concert Orchestra - Journey Of The Hopefuls
TTITLE15=David Rose and His Concert Orchestra - Hoss
TTITLE16=David Rose and His Concert Orchestra - Annie O'Toole
TTITLE17=David Rose and His Concert Orchestra - Gypsy
TTITLE18=David Rose and His Concert Orchestra - Ponderosa
TTITLE19=David Rose and His Concert Orchestra - Bonanza!
TTITLE20=David Rose and His Concert Orchestra - Hoedown At Virginia City
TTITLE21=David Rose and His Concert Orchestra - The Balloon Riders
TTITLE22=David Rose and His Concert Orchestra - Legend Of Sam Hill
TTITLE23=David Rose and His Concert Orchestra - Silent Thunder
TTITLE24=David Rose and His Concert Orchestra - Horseless Carriage
TTITLE25=David Rose and His Concert Orchestra - Fury In Old Mexico
TTITLE26=The Cartwrights - Bonanza! (Rejected Version)
TTITLE27=Michael Landon - Gimme A Little Kiss Will Ya Huh
TTITLE28=Michael Landon - Be Patient With Me
TTITLE29=Johnny Cash - Bonanza!
TTITLE30=Al Caiola - Bonanza!
TTITLE31=Original TV Theme - Bonanza!
EXTD=
EXTT0=
EXTT1=
EXTT2=
EXTT3=
EXTT4=
EXTT5=
EXTT6=
EXTT7=
EXTT8=
EXTT9=
EXTT10=
EXTT11=
EXTT12=
EXTT13=
EXTT14=
EXTT15=
EXTT16=
EXTT17=
EXTT18=
EXTT19=
EXTT20=
EXTT21=
EXTT22=
EXTT23=
EXTT24=
EXTT25=
EXTT26=
EXTT27=
EXTT28=
EXTT29=
EXTT30=
EXTT31=
PLAYORDER=
